# xmcd
#
# Track frame offsets:
#        150
#        23101
#        41101
#        61052
#        80253
#        114453
#
# Disc length: 1814 seconds
#
# Revision: 0
# Processed by: cddbd v1.5.1PL0 Copyright (c) Steve Scherf et al.
# Submitted via: ExactAudioCopy v0.95b3
#
DISCID=41071406
DTITLE=ROOM#NUMBER - JUNO
DYEAR=2005
DGENRE=Rock
TTITLE0=JUNO
TTITLE1=LILY
TTITLE2=BEAUTIFUl DAYS
TTITLE3=NIGHT SLIDE
TTITLE4=YOU ARE HIROSHIMA
TTITLE5=OVER 2005 -silence fp-
EXTD=
EXTT0=
EXTT1=
EXTT2=
EXTT3=
EXTT4=
EXTT5=
PLAYORDER=
